<svg width="55" height="33" viewBox="0 0 55 33" fill="none" xmlns="http://www.w3.org/2000/svg">
<g clip-path="url(#clip0)">
<path d="M51.7209 0H3.27913C0.149052 0 0 4.10667 0 4.10667H55C55 4.10667 55 0 51.7209 0Z" fill="#A71414"/>
<path d="M25.0407 32.2667L10.1355 22.1467C8.04883 20.68 6.70736 18.1867 6.70736 15.6933V4.10667C6.70736 4.10667 6.70736 0 3.42823 0C0.745304 0 27.4255 0 27.4255 0C27.4255 0 55.1491 0 51.4228 0C48.1437 0 48.1437 4.10667 48.1437 4.10667V15.5467C48.1437 18.1867 46.8022 20.5333 44.7155 22L29.8103 32.2667C28.4689 33.2933 26.5312 33.2933 25.0407 32.2667Z" fill="url(#paint0_linear)"/>
<path d="M22.6016 7.625H24.9453V15.5C24.9453 16.224 24.7839 16.8646 24.4609 17.4219C24.1432 17.974 23.6927 18.401 23.1094 18.7031C22.526 19.0052 21.8672 19.1562 21.1328 19.1562C19.9297 19.1562 18.9922 18.8516 18.3203 18.2422C17.6484 17.6276 17.3125 16.7604 17.3125 15.6406H19.6719C19.6719 16.1979 19.7891 16.6094 20.0234 16.875C20.2578 17.1406 20.6276 17.2734 21.1328 17.2734C21.5807 17.2734 21.9375 17.1198 22.2031 16.8125C22.4688 16.5052 22.6016 16.0677 22.6016 15.5V7.625ZM29.2969 14.9922V19H26.9531V7.625H31.3906C32.2448 7.625 32.9948 7.78125 33.6406 8.09375C34.2917 8.40625 34.7917 8.85156 35.1406 9.42969C35.4896 10.0026 35.6641 10.6562 35.6641 11.3906C35.6641 12.5052 35.2812 13.3854 34.5156 14.0312C33.7552 14.6719 32.7005 14.9922 31.3516 14.9922H29.2969ZM29.2969 13.0938H31.3906C32.0104 13.0938 32.4818 12.9479 32.8047 12.6562C33.1328 12.3646 33.2969 11.9479 33.2969 11.4062C33.2969 10.849 33.1328 10.3984 32.8047 10.0547C32.4766 9.71094 32.0234 9.53385 31.4453 9.52344H29.2969V13.0938Z" fill="white"/>
</g>
<defs>
<linearGradient id="paint0_linear" x1="3.23865" y1="0" x2="33.9747" y2="45.1493" gradientUnits="userSpaceOnUse">
<stop stop-color="#FF5252"/>
<stop offset="1" stop-color="#C80D0D"/>
</linearGradient>
<clipPath id="clip0">
<rect width="55" height="33" fill="white"/>
</clipPath>
</defs>
</svg>
